<svg xmlns="http://www.w3.org/2000/svg" viewBox="0 0 1200 340" width="1200" height="340">
  <!-- panel offset shadow (visible on light backgrounds) -->
  <rect x="32" y="32" width="1160" height="300" rx="28" fill="#000000" opacity="0.5"/>

  <!-- panel -->
  <rect x="20" y="20" width="1160" height="300" rx="28" fill="#000000"/>
  <rect x="22" y="22" width="1156" height="296" rx="26" fill="none" stroke="#ffffff" stroke-opacity="0.3" stroke-width="2"/>

  <g transform="translate(46,30) scale(0.5)">
    <polygon points="210,268 256,138 256,268" fill="#bfdbfe"/>
    <polygon points="256,138 302,268 256,268" fill="#1d4ed8"/>

    <polygon points="86,268 176,288 256,396 256,268" fill="#60a5fa"/>
    <polygon points="256,268 256,396 336,288 426,268" fill="#1e40af"/>

    <g fill="none" stroke="#0b1220" stroke-width="10" stroke-linejoin="round" stroke-linecap="round">
      <polyline points="86,268 426,268"/>
      <polyline points="210,268 256,138 302,268"/>
      <polyline points="86,268 176,288 256,396 336,288 426,268"/>
      <line x1="256" y1="138" x2="256" y2="396"/>
    </g>
  </g>

  <!-- wordmark -->
  <text x="382" y="205" font-family="'Segoe UI', system-ui, -apple-system, 'Helvetica Neue', Arial, sans-serif"
        font-size="112" font-weight="800" fill="#ffffff" letter-spacing="-1">Challoupe</text>
  <rect x="386" y="222" width="140" height="8" fill="#ffffff" opacity="0.5"/>
  <text x="386" y="266" font-family="'Segoe UI', system-ui, -apple-system, 'Helvetica Neue', Arial, sans-serif"
        font-size="30" font-weight="500" fill="#ffffff" opacity="0.6">Self-hosted Docker management</text>
</svg>
