<svg xmlns="http://www.w3.org/2000/svg" viewBox="0 0 560 560" width="560" height="560">
  <g transform="translate(24,24)">
    <rect x="0" y="0" width="512" height="512" rx="40" fill="#000000"/>

    <!-- box: 3 flat creased facets, top/left/right -->
    <polygon points="156,140 256,190 256,270 156,220" fill="#ffffff" opacity="0.65"/>
    <polygon points="256,190 356,140 356,220 256,270" fill="#ffffff" opacity="0.35"/>
    <polygon points="156,140 256,90 356,140 256,190" fill="#ffffff" opacity="0.95"/>

    <!-- hull: 2 flat creased facets -->
    <polygon points="256,270 80,350 256,430" fill="#ffffff" opacity="0.85"/>
    <polygon points="256,270 432,350 256,430" fill="#ffffff" opacity="0.45"/>

    <!-- fold creases -->
    <g fill="none" stroke="#000000" stroke-width="6" stroke-linejoin="round" stroke-linecap="round">
      <polyline points="156,140 256,90 356,140 356,220 256,270 156,220 156,140"/>
      <line x1="256" y1="90" x2="256" y2="270"/>
      <polyline points="80,350 256,270 432,350 256,430 80,350"/>
      <line x1="256" y1="270" x2="256" y2="430"/>
    </g>

    <rect x="2" y="2" width="508" height="508" rx="38" fill="none" stroke="#ffffff" stroke-opacity="0.55" stroke-width="4"/>
  </g>
</svg>
